<?xml version="1.0" encoding="UTF-8"?>

<svg version="1.1" xmlns="http://www.w3.org/2000/svg" width="450" height="500">
<path d="M0 0 C165 0 330 0 500 0 C500 165 500 330 500 500 C335 500 170 500 0 500 C0 335 0 170 0 0 Z " fill="#FEFEFE" transform="translate(0,0)"/>
<path d="M0 0 C0.66 0.33 1.32 0.66 2 1 C2.0543965 3.37531394 2.09385864 5.74935883 2.125 8.125 C2.14175781 8.79015625 2.15851563 9.4553125 2.17578125 10.140625 C2.21882474 14.53106057 1.47536177 17.89665008 0 22 C-0.23710932 24.28435145 -0.23710932 24.28435145 -0.125 26.375 C-0.08375 27.57125 -0.0425 28.7675 0 30 C0.65742188 30.24878906 1.31484375 30.49757812 1.9921875 30.75390625 C5.78615594 32.32569317 9.4476924 34.11224259 13.125 35.9375 C13.84042969 36.28490234 14.55585938 36.63230469 15.29296875 36.99023438 C16.32744141 37.50360352 16.32744141 37.50360352 17.3828125 38.02734375 C18.00559082 38.33406006 18.62836914 38.64077637 19.27001953 38.95678711 C21.85534293 40.51578893 23.64573858 42.06360089 24.72265625 44.91015625 C25.67306727 50.92942603 24.2954557 54.36147394 20.9609375 59.37890625 C18.10391397 63.19775643 15.0801615 66.85668481 11.953125 70.45703125 C7.51817648 76.23133422 7.20014266 81.93619967 8 89 C9.44796351 93.82892265 10.74810942 97.16540628 15 100 C18.50804513 99.85383145 20.33484227 99.6880942 22.8125 97.125 C25.0681039 93.08865618 25.10753998 89.86153805 25.0625 85.3125 C25.05347656 84.13300781 25.04445313 82.95351562 25.03515625 81.73828125 C25.02355469 80.83464844 25.01195312 79.93101562 25 79 C29.19813062 82.74427866 31.07776117 85.8403063 33 91 C33.33 91 33.66 91 34 91 C34.37704549 84.89320964 33.46421608 81.07574467 30.5 75.6875 C27.38874592 69.52126576 25.25702391 63.99545808 27 57 C28.4408188 54.46376417 29.82695476 53.01006685 32 51 C32.33 51.66 32.66 52.32 33 53 C32.67 53.99 32.34 54.98 32 56 C31.47670222 60.50379233 31.47888545 63.97861548 33.5625 68.0625 C36.09553265 71.11512909 38.70247526 74.07753363 41.4140625 76.97265625 C46.4240416 83.3770384 45.72033732 91.30618434 45 99 C42.25597515 110.24250958 35.11812108 118.46544368 25.6875 124.875 C12.30898553 132.84198053 -3.85208076 135.26541723 -19.0625 131.9375 C-33.31890582 127.82581422 -45.30109837 120.53940169 -52.80859375 107.4921875 C-56.76741873 99.21110444 -57.50744127 90.1130715 -54.875 81.25 C-52.36438747 74.80093844 -48.74534987 68.94605023 -43 65 C-43.15984375 65.70769531 -43.3196875 66.41539062 -43.484375 67.14453125 C-45.21189808 76.71134469 -44.48107921 86.77838119 -39 95 C-38.97873047 93.65808594 -38.97873047 93.65808594 -38.95703125 92.2890625 C-38.33664753 76.56149674 -31.65411478 68.08907385 -20.375 57.625 C-19.59125 56.75875 -18.8075 55.8925 -18 55 C-18.04205673 52.91696275 -18.04205673 52.91696275 -19 51 C-21.41157674 49.52070354 -23.70885869 48.27085816 -26.25 47.0625 C-32.56214555 44.02804852 -37.01699317 40.97451025 -41 35 C-40.625 32.8125 -40.625 32.8125 -40 31 C-39.3503125 32.0828125 -39.3503125 32.0828125 -38.6875 33.1875 C-32.49712579 39.6657986 -23.04015358 41.82223753 -14.57128906 44.03710938 C-9.82463855 45.37850293 -6.91814727 46.98895587 -4 51 C-2.81913008 57.39378911 -5.61910693 62.05592812 -8.5 67.5625 C-12.46718667 74.85283552 -12.46718667 74.85283552 -13 83 C-12.85304687 82.3709375 -12.70609375 81.741875 -12.5546875 81.09375 C-10.83051638 74.51415447 -8.36882064 70.14695822 -4 65 C-2.41397715 63.08555828 -0.8307705 61.16878091 0.75 59.25 C1.50796875 58.34765625 2.2659375 57.4453125 3.046875 56.515625 C5.86888373 52.88087775 6.9453013 51.21157626 7.15625 46.5390625 C5.88659815 42.6528984 5.59386368 42.36228179 2.21875 40.5234375 C0.65786996 39.78142322 -0.91586632 39.06597915 -2.5 38.375 C-10.56758946 34.77781956 -10.56758946 34.77781956 -12.30078125 31.66015625 C-11.8634425 27.79226418 -9.89647947 25.14842771 -7.6875 22.0625 C-3.65205441 16.30559694 -1.02538357 11.27921926 -0.375 4.125 C-0.30023438 3.34382813 -0.22546875 2.56265625 -0.1484375 1.7578125 C-0.09945312 1.17773438 -0.05046875 0.59765625 0 0 Z " fill="#FEBE05" transform="translate(244,118)"/>
<path d="M0 0 C0.33 0 0.66 0 1 0 C2.00793067 11.08723736 -3.22282755 20.61948059 -10 29 C-10.65871094 29.82242187 -11.31742188 30.64484375 -11.99609375 31.4921875 C-22.06736806 43.35596384 -34.01577516 50.64353416 -48 57 C-48.84820312 57.40992188 -49.69640625 57.81984375 -50.5703125 58.2421875 C-72.26233994 67.99226255 -101.84948198 69.60201233 -124.1953125 61.8984375 C-130.71188103 59.36693845 -136.38496544 56.14470592 -142 52 C-143.36125 51.0409375 -143.36125 51.0409375 -144.75 50.0625 C-147.7230315 47.33722112 -149.74876967 44.34468506 -152 41 C-151.67 40.34 -151.34 39.68 -151 39 C-150.48050781 39.27714844 -149.96101562 39.55429687 -149.42578125 39.83984375 C-148.72839844 40.20207031 -148.03101563 40.56429687 -147.3125 40.9375 C-146.62800781 41.29714844 -145.94351563 41.65679687 -145.23828125 42.02734375 C-129.79960534 48.73629716 -106.97287023 43.48187533 -91 41 C-90.23042969 40.88253418 -89.46085937 40.76506836 -88.66796875 40.64404297 C-59.46661649 36.0596442 -22.90543717 24.89887737 -2 3 C-1.34 2.01 -0.68 1.02 0 0 Z " fill="#231E19" transform="translate(326,233)"/>
<path d="M0 0 C3.0711614 2.53370816 4.80265359 4.12091143 5.6875 8.0625 C3.76374205 19.08038647 -3.65568178 28.17778372 -10.3984375 36.78515625 C-14.20049386 42.27252129 -13.74763724 48.649103 -13 55 C-11.695743 60.39354397 -8.10881112 62.90265292 -3.6875 66 C0.04697963 68.23370744 1.5686575 69 6 69 C6.99 68.67 7.98 68.34 9 68 C9.99 67.67 10.98 67.34 12 67 C12.71727778 65.35448038 13.38325228 63.68577711 14 62 C14.99 61.01 14.99 61.01 16 60 C16.99 61.65 17.98 63.3 19 65 C20.91466367 64.87822312 20.91466367 64.87822312 23 64 C26.05295029 59.98926138 26.45544324 56.65351468 26.6875 51.6875 C26.75324219 50.43324219 26.81898438 49.17898437 26.88671875 47.88671875 C26.92410156 46.93410156 26.96148437 45.98148438 27 45 C30.02251151 49.53376727 29.52173059 53.6865858 29 59 C27.01337796 68.84796926 20.65807721 78.95728224 12.44140625 84.828125 C9.99415603 86.09565554 7.60160926 87.09545324 5 88 C4.20207031 88.30164063 3.40414062 88.60328125 2.58203125 88.9140625 C-12.27569672 94.23994824 -28.08963154 93.19575218 -42.36303711 86.69238281 C-52.42540696 81.8396087 -62.16827062 74.94573262 -66 64 C-67.35870868 53.92027747 -66.06003961 44.39439822 -62 35 C-61.34 34.34 -60.68 33.68 -60 33 C-60.165 34.03125 -60.33 35.0625 -60.5 36.125 C-61.90572307 48.18014023 -61.93342524 58.99061209 -54.42578125 69.125 C-50.32309904 73.56239987 -45.38317832 76.35113448 -40 79 C-40.474375 77.80375 -40.94875 76.6075 -41.4375 75.375 C-45.59218696 64.89796333 -45.45127803 52.69668973 -41.1484375 42.3515625 C-37.41538462 34.70769231 -37.41538462 34.70769231 -34 33 C-34.15855469 33.66515625 -34.31710938 34.3303125 -34.48046875 35.015625 C-36.50756672 46.66000734 -35.43035709 56.41775518 -28.8125 66.25 C-25.29793705 69.68646155 -20.1735773 74 -15 74 C-15.3609375 73.49855469 -15.721875 72.99710937 -16.09375 72.48046875 C-21.26276675 64.05209977 -21.53676798 54.58113404 -20 45 C-17.62836454 36.29989659 -12.20347539 29.69267425 -6.08984375 23.296875 C-0.99799797 17.70060337 1.62852096 12.56594991 1.2734375 4.9453125 C1.03017324 2.78868905 1.03017324 2.78868905 0 0 Z " fill="#FE8D01" transform="translate(256,159)"/>
<path d="M0 0 C7.37175942 1.11494582 13.28342477 2.33168958 19.4375 6.75 C21 9 21 9 21 12.375 C18.06772186 23.00450827 8.57726458 28.622772 -0.4375 34 C-15.23167852 42.31167917 -31.1318457 47.66600012 -47.40527344 52.265625 C-49.64316468 52.89900634 -51.87230118 53.55590585 -54.1015625 54.21875 C-73.12614813 59.50558222 -103.75925868 65.69836714 -122.48046875 56.82421875 C-127.63392857 53.73214286 -127.63392857 53.73214286 -129 51 C-129.3843433 47.00282972 -129.27888975 44.56939991 -127.5 40.9375 C-124.40163426 37.29692026 -120.92848701 34.68891586 -117 32 C-118.20381448 34.49361571 -119.45428722 36.68143083 -121 39 C-121.66743877 41.41344667 -121.66743877 41.41344667 -121 44 C-116.32380335 49.0269114 -111.35099708 50.66587463 -104.54882812 51.18823242 C-101.86245771 51.26881337 -99.1874278 51.27729787 -96.5 51.25 C-95.0464209 51.23984863 -95.0464209 51.23984863 -93.56347656 51.22949219 C-61.74023367 50.77712873 -20.20814735 41.54016349 4.30859375 19.96875 C7.32482409 16.81293556 8.85793019 14.42620942 10.25 10.25 C10.32744277 6.8781331 10.32744277 6.8781331 7.875 4.6875 C5.2848181 3.16717584 2.83707209 1.97271043 0 1 C0 0.67 0 0.34 0 0 Z " fill="#28231E" transform="translate(302,211)"/>
<path d="M0 0 C1.9375 1.125 1.9375 1.125 3 3 C3.69378517 6.53830434 3.69939937 8.8589927 1.78125 11.98828125 C-5.84964658 21.25694101 -16.0391549 26.27312778 -26.9375 30.75 C-28.14664063 31.25877686 -29.35578125 31.76755371 -30.6015625 32.29174805 C-36.84606536 34.91463436 -43.12151446 37.45770136 -49.41015625 39.97265625 C-51.19595093 40.68953613 -51.19595093 40.68953613 -53.01782227 41.42089844 C-55.26307268 42.31818003 -57.51203091 43.20626515 -59.76538086 44.08300781 C-75.5453922 50.35821481 -86.9632249 57.69937473 -95.43359375 72.40234375 C-95.95050781 73.25957031 -96.46742188 74.11679688 -97 75 C-97.33 75 -97.66 75 -98 75 C-98.72010104 66.5388128 -95.14327373 59.47497159 -89.87597656 52.95776367 C-83.35909562 46.15676572 -73.35329779 42.77292518 -64.875 39.125 C-38.67887475 28.68220866 -38.67887475 28.68220866 -18.3671875 9.9921875 C-16.80933702 7.7221768 -15.10457785 5.65201815 -13.3125 3.5625 C-12.75175781 2.90378906 -12.19101562 2.24507812 -11.61328125 1.56640625 C-8.05815227 -1.885426 -4.50109907 -0.96452123 0 0 Z " fill="#28221D" transform="translate(428,175)"/>
<path d="M0 0 C3.78820742 2.22384646 5.85712089 4.24994873 7.625 8.375 C8.41002315 13.32615477 8.86097125 18.13165407 6.37890625 22.63671875 C3.22358287 26.39005853 0.30841848 29.20685367 -4.73828125 29.7109375 C-6.69314453 29.73027344 -6.69314453 29.73027344 -8.6875 29.75 C-9.98300781 29.77835937 -11.27851563 29.80671875 -12.61328125 29.8359375 C-16.9624641 29.30301582 -19.02673158 28.15460204 -22.375 25.375 C-25.0980563 21.84376389 -26.25944276 18.19834533 -26.875 13.8125 C-26.1320869 8.70497244 -24.43785932 5.26199343 -20.6796875 1.82421875 C-14.21101561 -2.82432077 -7.25625407 -3.19652828 0 0 Z " fill="#27211C" transform="translate(192.375,326.625)"/>
<path d="M0 0 C3.77702297 2.63513231 6.60374735 5.7074947 8.6875 9.875 C9.23728069 14.8861158 9.24904513 18.77196493 6.9375 23.3125 C3.27858881 27.4795933 0.41781942 29.65263754 -5.23828125 30.11328125 C-14.31566372 30.31220889 -14.31566372 30.31220889 -18.875 28.3125 C-23.17887478 24.00862522 -25.50596159 20.38196057 -25.8125 14.3125 C-25.59343708 9.87081048 -24.24348291 7.28127743 -21.3125 3.875 C-15.04126271 -1.78440926 -7.97318998 -2.70787584 0 0 Z " fill="#27211C" transform="translate(230.3125,326.125)"/>
<path d="M0 0 C11 0 11 0 13.38671875 1.96875 C13.81597656 2.8040625 14.24523437 3.639375 14.6875 4.5 C15.14511719 5.3353125 15.60273438 6.170625 16.07421875 7.03125 C16.37972656 7.6809375 16.68523437 8.330625 17 9 C17.33 6.03 17.66 3.06 18 0 C21.96 0 25.92 0 30 0 C30 9.9 30 19.8 30 30 C20 30 20 30 17.4921875 28.03125 C16.69167969 26.77828125 16.69167969 26.77828125 15.875 25.5 C15.31554687 24.6646875 14.75609375 23.829375 14.1796875 22.96875 C13.59574219 21.99421875 13.59574219 21.99421875 13 21 C12.67 23.97 12.34 26.94 12 30 C8.04 30 4.08 30 0 30 C0 20.1 0 10.2 0 0 Z " fill="#231D18" transform="translate(302,326)"/>
<path d="M0 0 C3.96 0 7.92 0 12 0 C12 2.97 12 5.94 12 9 C15.08759559 8.35932024 15.08759559 8.35932024 15.94921875 6.15234375 C16.19285156 5.42144531 16.43648438 4.69054687 16.6875 3.9375 C17.120625 2.638125 17.55375 1.33875 18 0 C21.96 0 25.92 0 30 0 C29.57741431 3.52154741 29.12398988 6.66936033 27.875 10 C25.79259056 17.13968952 29.23724996 23.49416926 32 30 C27.38 30 22.76 30 18 30 C17.0234375 27.68880208 16.046875 25.37760417 15.0703125 23.06640625 C14.1755063 20.84253285 14.1755063 20.84253285 12 20 C12 23.3 12 26.6 12 30 C8.04 30 4.08 30 0 30 C0 20.1 0 10.2 0 0 Z " fill="#231D18" transform="translate(245,326)"/>
<path d="M0 0 C2.34955653 1.39922777 3.72503894 2.67107006 4.921875 5.14453125 C4.921875 6.13453125 4.921875 7.12453125 4.921875 8.14453125 C3.64570313 8.12132812 2.36953125 8.098125 1.0546875 8.07421875 C-0.6145775 8.05546296 -2.2838488 8.03726256 -3.953125 8.01953125 C-4.79488281 8.00277344 -5.63664062 7.98601562 -6.50390625 7.96875 C-7.71240234 7.95908203 -7.71240234 7.95908203 -8.9453125 7.94921875 C-9.68894043 7.93874512 -10.43256836 7.92827148 -11.19873047 7.91748047 C-13.32302735 7.97797155 -13.32302735 7.97797155 -15.078125 10.14453125 C-15.41145833 13.14453125 -15.41145833 13.14453125 -15.078125 16.14453125 C-13.23928619 18.43181859 -13.23928619 18.43181859 -10.453125 18.26953125 C-9.669375 18.22828125 -8.885625 18.18703125 -8.078125 18.14453125 C-9.398125 17.81453125 -10.718125 17.48453125 -12.078125 17.14453125 C-12.078125 14.83453125 -12.078125 12.52453125 -12.078125 10.14453125 C-6.138125 10.14453125 -0.198125 10.14453125 5.921875 10.14453125 C5.921875 19.38777449 5.921875 19.38777449 1.921875 24.14453125 C-2.01696038 27.95810332 -4.56146284 28.69190725 -10.015625 28.64453125 C-15.74644468 28.47668297 -18.95970445 28.15164314 -23.078125 24.14453125 C-26.82904857 19.87623891 -27.43110936 15.94932683 -27.359375 10.42578125 C-26.77296112 5.66931314 -23.93829035 2.92077803 -20.515625 -0.16796875 C-13.80137592 -4.81629504 -6.8703549 -3.35225937 0 0 Z " fill="#28231E" transform="translate(365.078125,327.85546875)"/>
<path d="M0 0 C3.38727336 1.92013101 5.69063284 3.90118526 7.6875 7.3125 C7.78125 9.97265625 7.78125 9.97265625 7.6875 12.3125 C5.89616022 12.36641993 4.10436101 12.40525571 2.3125 12.4375 C1.31476563 12.46070313 0.31703125 12.48390625 -0.7109375 12.5078125 C-3.3125 12.3125 -3.3125 12.3125 -5.3125 10.3125 C-7.89604218 10.14562552 -7.89604218 10.14562552 -10.3125 10.3125 C-10.99051034 13.21323181 -10.99051034 13.21323181 -11.3125 16.3125 C-10.6525 16.9725 -9.9925 17.6325 -9.3125 18.3125 C-6.73709787 18.14742354 -6.73709787 18.14742354 -4.3125 17.3125 C-3.9825 16.6525 -3.6525 15.9925 -3.3125 15.3125 C0.6475 15.3125 4.6075 15.3125 8.6875 15.3125 C7.52645877 21.11770614 5.9841855 24.54581885 1.25 28.1875 C-4.75458949 30.08368615 -11.83184775 31.06450616 -17.640625 28.140625 C-21.74234059 24.79720977 -23.92659108 21.55290985 -24.55859375 16.24609375 C-24.8682557 10.70032977 -24.02397516 6.55104856 -20.3125 2.3125 C-14.34395775 -2.91384011 -7.07002446 -3.2196208 0 0 Z " fill="#27211C" transform="translate(153.3125,326.6875)"/>
<path d="M0 0 C3.96 0 7.92 0 12 0 C12 9.9 12 19.8 12 30 C8.04 30 4.08 30 0 30 C0 20.1 0 10.2 0 0 Z " fill="#211B16" transform="translate(283,326)"/>
<path d="M0 0 C1.258125 -0.04125 2.51625 -0.0825 3.8125 -0.125 C4.52019531 -0.14820313 5.22789062 -0.17140625 5.95703125 -0.1953125 C8 0 8 0 11 2 C11.3125 5 11.3125 5 11 8 C9 10 9 10 6.8359375 10.1953125 C4.55729167 10.13020833 2.27864583 10.06510417 0 10 C0 6.7 0 3.4 0 0 Z " fill="#FE9D29" transform="translate(323,368)"/>
<path d="M0 0 C1.9375 1.125 1.9375 1.125 3 3 C2.8125 6.125 2.8125 6.125 2 9 C-1.01324195 10.50662097 -3.68286377 10.17770373 -7 10 C-9 8 -9 8 -9.3125 5 C-9.209375 4.01 -9.10625 3.02 -9 2 C-5.53076119 -0.31282587 -4.07794425 -0.42478586 0 0 Z " fill="#FE981C" transform="translate(298,368)"/>
<path d="M0 0 C3.0625 0.25 3.0625 0.25 6.0625 2.25 C6.375 5.25 6.375 5.25 6.0625 8.25 C4.0625 10.25 4.0625 10.25 0.625 10.5625 C-2.9375 10.25 -2.9375 10.25 -4.9375 9.0625 C-5.9375 7.25 -5.9375 7.25 -5.75 4.6875 C-4.565088 1.132764 -3.77070027 0.32091066 0 0 Z " fill="#FE9B24" transform="translate(311.9375,367.75)"/>
<path d="M0 0 C0.84755859 0.00966797 1.69511719 0.01933594 2.56835938 0.02929688 C3.44943359 0.05443359 4.33050781 0.07957031 5.23828125 0.10546875 C6.13095703 0.11900391 7.02363281 0.13253906 7.94335938 0.14648438 C10.14644291 0.18182796 12.34830707 0.23116382 14.55078125 0.29296875 C14.55078125 0.95296875 14.55078125 1.61296875 14.55078125 2.29296875 C8.61078125 2.62296875 2.67078125 2.95296875 -3.44921875 3.29296875 C-3.44921875 5.60296875 -3.44921875 7.91296875 -3.44921875 10.29296875 C-1.46921875 10.29296875 0.51078125 10.29296875 2.55078125 10.29296875 C0.55078125 12.29296875 0.55078125 12.29296875 -1.88671875 12.60546875 C-4.44921875 12.29296875 -4.44921875 12.29296875 -6.26171875 11.16796875 C-8.00120657 8.42140903 -7.84691003 6.47449901 -7.44921875 3.29296875 C-5.22661369 0.31395467 -3.64073649 -0.07330342 0 0 Z " fill="#DFDFDE" transform="translate(356.44921875,334.70703125)"/>
<path d="M0 0 C3.29714793 0.32971479 4.6226839 0.6226839 7 3 C6.44444444 7.55555556 6.44444444 7.55555556 5 9 C2.0625 9.1875 2.0625 9.1875 -1 9 C-1.66 8.34 -2.32 7.68 -3 7 C-2.67028521 3.70285207 -2.3773161 2.3773161 0 0 Z " fill="#EDEDEC" transform="translate(220,336)"/>
<path d="M0 0 C0.99 0 1.98 0 3 0 C3 1.32 3 2.64 3 4 C4.65 4 6.3 4 8 4 C8 2.68 8 1.36 8 0 C8.99 0 9.98 0 11 0 C11 3.3 11 6.6 11 10 C10.01 10 9.02 10 8 10 C8 8.68 8 7.36 8 6 C6.35 6 4.7 6 3 6 C3 7.32 3 8.64 3 10 C2.01 10 1.02 10 0 10 C0 6.7 0 3.4 0 0 Z " fill="#FE9B25" transform="translate(237,368)"/>
<path d="M0 0 C5.56818182 0.56818182 5.56818182 0.56818182 7 2 C7.1875 4.4375 7.1875 4.4375 7 7 C5 9 5 9 1.9375 9.1875 C-1 9 -1 9 -2 8 C-2.1875 5.0625 -2.1875 5.0625 -2 2 C-1.34 1.34 -0.68 0.68 0 0 Z " fill="#F2F2F2" transform="translate(181,336)"/>
<path d="M0 0 C0.99 0 1.98 0 3 0 C4.32 3.3 5.64 6.6 7 10 C6.01 10 5.02 10 4 10 C4 9.34 4 8.68 4 8 C1.36 8.66 -1.28 9.32 -4 10 C-3.52449439 8.51965236 -3.04448784 7.04074979 -2.5625 5.5625 C-2.29566406 4.73878906 -2.02882812 3.91507812 -1.75390625 3.06640625 C-1 1 -1 1 0 0 Z " fill="#FE9517" transform="translate(199,368)"/>
<path d="M0 0 C0.99 0 1.98 0 3 0 C3 1.32 3 2.64 3 4 C4.65 4 6.3 4 8 4 C8 2.68 8 1.36 8 0 C8.66 0 9.32 0 10 0 C10 3.3 10 6.6 10 10 C9.34 10 8.68 10 8 10 C8 8.68 8 7.36 8 6 C6.35 6 4.7 6 3 6 C3 7.32 3 8.64 3 10 C2.01 10 1.02 10 0 10 C0 6.7 0 3.4 0 0 Z " fill="#FE991F" transform="translate(166,368)"/>
<path d="M0 0 C2.64 0 5.28 0 8 0 C8 0.66 8 1.32 8 2 C6.02 2 4.04 2 2 2 C2 2.66 2 3.32 2 4 C3.98 4 5.96 4 8 4 C8 4.66 8 5.32 8 6 C6.02 6 4.04 6 2 6 C2 6.66 2 7.32 2 8 C3.98 8 5.96 8 8 8 C8 8.66 8 9.32 8 10 C5.36 10 2.72 10 0 10 C0 6.7 0 3.4 0 0 Z " fill="#FE9619" transform="translate(182,368)"/>
<path d="M0 0 C2.97 0 5.94 0 9 0 C9 0.66 9 1.32 9 2 C7.02 2 5.04 2 3 2 C3 2.99 3 3.98 3 5 C4.65 5 6.3 5 8 5 C8 5.33 8 5.66 8 6 C6.35 6 4.7 6 3 6 C3 7.32 3 8.64 3 10 C2.01 10 1.02 10 0 10 C0 6.7 0 3.4 0 0 Z " fill="#FE9C26" transform="translate(275,368)"/>
<path d="M0 0 C0.99 0 1.98 0 3 0 C3 2.64 3 5.28 3 8 C4.65 8 6.3 8 8 8 C8 8.66 8 9.32 8 10 C5.36 10 2.72 10 0 10 C0 6.7 0 3.4 0 0 Z " fill="#FE9920" transform="translate(211,368)"/>
<path d="M0 0 C1.98 0.99 1.98 0.99 4 2 C4 2.66 4 3.32 4 4 C4.66 4 5.32 4 6 4 C6.33 2.68 6.66 1.36 7 0 C7.99 0 8.98 0 10 0 C8.66666667 3.33333333 7.33333333 6.66666667 6 10 C5.34 10 4.68 10 4 10 C1.125 3.375 1.125 3.375 0 0 Z " fill="#FE971C" transform="translate(253,368)"/>
<path d="M0 0 C3.3 0 6.6 0 10 0 C10 0.66 10 1.32 10 2 C8.68 2 7.36 2 6 2 C6 4.64 6 7.28 6 10 C5.34 10 4.68 10 4 10 C4 7.36 4 4.72 4 2 C2.68 2 1.36 2 0 2 C0 1.34 0 0.68 0 0 Z " fill="#FE9516" transform="translate(223,368)"/>
<path d="M0 0 C1.67542976 0.28604898 3.34385343 0.61781233 5 1 C5 2.65 5 4.3 5 6 C3.35 6 1.7 6 0 6 C-0.38218767 4.34385343 -0.71395102 2.67542976 -1 1 C-0.67 0.67 -0.34 0.34 0 0 Z " fill="#FFFBF6" transform="translate(310,370)"/>
<path d="M0 0 C1.67542976 0.28604898 3.34385343 0.61781233 5 1 C4.67 2.65 4.34 4.3 4 6 C2.35 6 0.7 6 -1 6 C-1.042721 4.33388095 -1.04063832 2.66617115 -1 1 C-0.67 0.67 -0.34 0.34 0 0 Z " fill="#FFFBF6" transform="translate(293,370)"/>
<path d="M0 0 C2.475 0.495 2.475 0.495 5 1 C5.5625 2.9375 5.5625 2.9375 6 5 C5 6 5 6 2.4375 6.0625 C1.2309375 6.0315625 1.2309375 6.0315625 0 6 C0 4.02 0 2.04 0 0 Z " fill="#FEF5E9" transform="translate(326,370)"/>
<path d="M0 0 C0.99 0.33 1.98 0.66 3 1 C3.125 3.875 3.125 3.875 3 7 C2.34 7.66 1.68 8.32 1 9 C-2.125 8.625 -2.125 8.625 -5 8 C-5 7.67 -5 7.34 -5 7 C-3.35 6.67 -1.7 6.34 0 6 C-0.2784375 4.7934375 -0.2784375 4.7934375 -0.5625 3.5625 C-0.706875 2.716875 -0.85125 1.87125 -1 1 C-0.67 0.67 -0.34 0.34 0 0 Z " fill="#FE9619" transform="translate(331,369)"/>
<path d="M0 0 C0 3 0 3 -1.6875 5 C-4.00314739 7.00272207 -6.3282225 8.51567917 -9 10 C-7.61811547 6.78956118 -6.07578097 4.95063635 -3.375 2.75 C-2.74335938 2.22921875 -2.11171875 1.7084375 -1.4609375 1.171875 C-0.73777344 0.59179688 -0.73777344 0.59179688 0 0 Z " fill="#4D4844" transform="translate(184,243)"/>
<path d="M0 0 C0.66 0 1.32 0 2 0 C2.061875 0.61875 2.12375 1.2375 2.1875 1.875 C2.828919 4.27761141 2.828919 4.27761141 5.5625 5.25 C6.366875 5.4975 7.17125 5.745 8 6 C8 6.33 8 6.66 8 7 C5.125 7.125 5.125 7.125 2 7 C0 5 0 5 -0.125 2.375 C-0.08375 1.59125 -0.0425 0.8075 0 0 Z " fill="#FE910D" transform="translate(289,371)"/>
<path d="M0 0 C0.66 0 1.32 0 2 0 C2 3.3 2 6.6 2 10 C1.34 10 0.68 10 0 10 C-0.74926071 6.33694766 -1.2380014 3.57644848 0 0 Z " fill="#FE8D06" transform="translate(174,368)"/>
<path d="M0 0 C-0.33 0.66 -0.66 1.32 -1 2 C-1.639375 2.12375 -2.27875 2.2475 -2.9375 2.375 C-5.19851273 2.80939427 -5.19851273 2.80939427 -6.25 5.0625 C-6.4975 5.701875 -6.745 6.34125 -7 7 C-7 5.68 -7 4.36 -7 3 C-7.66 2.67 -8.32 2.34 -9 2 C-5.5647952 -0.29013653 -4.014669 -0.17842973 0 0 Z " fill="#FEA130" transform="translate(298,368)"/>
<path d="M0 0 C0.33 0 0.66 0 1 0 C1.125 2.375 1.125 2.375 1 5 C-1 7 -1 7 -4.125 7.125 C-5.548125 7.063125 -5.548125 7.063125 -7 7 C-4 5 -4 5 -2 4 C-0.86649466 1.98330173 -0.86649466 1.98330173 0 0 Z " fill="#FE910D" transform="translate(317,371)"/>
<path d="M0 0 C0.66 1.32 1.32 2.64 2 4 C0.02 4.33 -1.96 4.66 -4 5 C-4 4.01 -4 3.02 -4 2 C-2.68 1.34 -1.36 0.68 0 0 Z " fill="#FEBC6D" transform="translate(200,371)"/>
</svg>
